<svg width="26" height="30" viewBox="0 0 26 30" fill="none" xmlns="http://www.w3.org/2000/svg">
<g clip-path="url(#clip0_911_2367)">
<path d="M1.85714 27.1875C1.85714 27.9334 2.15064 28.6488 2.67306 29.1762C3.19548 29.7037 3.90404 30 4.64286 30H21.3571C22.096 30 22.8045 29.7037 23.3269 29.1762C23.8494 28.6488 24.1429 27.9334 24.1429 27.1875V7.50001H1.85714V27.1875ZM17.6429 12.1875C17.6429 11.9389 17.7407 11.7004 17.9148 11.5246C18.089 11.3488 18.3252 11.25 18.5714 11.25C18.8177 11.25 19.0539 11.3488 19.228 11.5246C19.4022 11.7004 19.5 11.9389 19.5 12.1875V25.3125C19.5 25.5612 19.4022 25.7996 19.228 25.9754C19.0539 26.1512 18.8177 26.25 18.5714 26.25C18.3252 26.25 18.089 26.1512 17.9148 25.9754C17.7407 25.7996 17.6429 25.5612 17.6429 25.3125V12.1875ZM12.0714 12.1875C12.0714 11.9389 12.1693 11.7004 12.3434 11.5246C12.5175 11.3488 12.7537 11.25 13 11.25C13.2463 11.25 13.4825 11.3488 13.6566 11.5246C13.8307 11.7004 13.9286 11.9389 13.9286 12.1875V25.3125C13.9286 25.5612 13.8307 25.7996 13.6566 25.9754C13.4825 26.1512 13.2463 26.25 13 26.25C12.7537 26.25 12.5175 26.1512 12.3434 25.9754C12.1693 25.7996 12.0714 25.5612 12.0714 25.3125V12.1875ZM6.5 12.1875C6.5 11.9389 6.59783 11.7004 6.77197 11.5246C6.94611 11.3488 7.1823 11.25 7.42857 11.25C7.67484 11.25 7.91103 11.3488 8.08517 11.5246C8.25931 11.7004 8.35714 11.9389 8.35714 12.1875V25.3125C8.35714 25.5612 8.25931 25.7996 8.08517 25.9754C7.91103 26.1512 7.67484 26.25 7.42857 26.25C7.1823 26.25 6.94611 26.1512 6.77197 25.9754C6.59783 25.7996 6.5 25.5612 6.5 25.3125V12.1875ZM25.0714 1.87501H18.1071L17.5616 0.779307C17.446 0.545058 17.268 0.348012 17.0476 0.210338C16.8272 0.0726632 16.573 -0.00017742 16.3138 1.02731e-05H9.68036C9.42174 -0.000993469 9.16807 0.0715755 8.94841 0.209403C8.72876 0.34723 8.552 0.544742 8.43839 0.779307L7.89286 1.87501H0.928571C0.682299 1.87501 0.446113 1.97378 0.271972 2.1496C0.0978314 2.32541 0 2.56387 0 2.81251L0 4.68751C0 4.93615 0.0978314 5.17461 0.271972 5.35042C0.446113 5.52624 0.682299 5.62501 0.928571 5.62501H25.0714C25.3177 5.62501 25.5539 5.52624 25.728 5.35042C25.9022 5.17461 26 4.93615 26 4.68751V2.81251C26 2.56387 25.9022 2.32541 25.728 2.1496C25.5539 1.97378 25.3177 1.87501 25.0714 1.87501Z" fill="black"/>
</g>
<defs>
<clipPath id="clip0_911_2367">
<rect width="26" height="30" fill="white"/>
</clipPath>
</defs>
</svg>
