<svg width="15" height="15" viewBox="0 0 15 15" fill="none" xmlns="http://www.w3.org/2000/svg">
<g clip-path="url(#clip0_911_2125)">
<path fill-rule="evenodd" clip-rule="evenodd" d="M7.5 14.0625C9.24048 14.0625 10.9097 13.3711 12.1404 12.1404C13.3711 10.9097 14.0625 9.24048 14.0625 7.5C14.0625 5.75952 13.3711 4.09032 12.1404 2.85961C10.9097 1.6289 9.24048 0.9375 7.5 0.9375C5.75952 0.9375 4.09032 1.6289 2.85961 2.85961C1.6289 4.09032 0.9375 5.75952 0.9375 7.5C0.9375 9.24048 1.6289 10.9097 2.85961 12.1404C4.09032 13.3711 5.75952 14.0625 7.5 14.0625ZM7.5 15C9.48912 15 11.3968 14.2098 12.8033 12.8033C14.2098 11.3968 15 9.48912 15 7.5C15 5.51088 14.2098 3.60322 12.8033 2.1967C11.3968 0.790176 9.48912 0 7.5 0C5.51088 0 3.60322 0.790176 2.1967 2.1967C0.790176 3.60322 0 5.51088 0 7.5C0 9.48912 0.790176 11.3968 2.1967 12.8033C3.60322 14.2098 5.51088 15 7.5 15Z" fill="black"/>
<path fill-rule="evenodd" clip-rule="evenodd" d="M4.01756 8.96883C4.12523 8.90667 4.25317 8.88982 4.37325 8.922C4.49333 8.95417 4.59572 9.03273 4.65788 9.14039C4.94579 9.63945 5.36011 10.0539 5.85912 10.3419C6.35813 10.6299 6.92422 10.7814 7.50038 10.781C8.07654 10.7814 8.64262 10.6299 9.14163 10.3419C9.64064 10.0539 10.055 9.63945 10.3429 9.14039C10.3734 9.08665 10.4143 9.03948 10.4632 9.00161C10.512 8.96373 10.5679 8.93589 10.6276 8.9197C10.6872 8.9035 10.7495 8.89926 10.8108 8.90723C10.8721 8.9152 10.9312 8.93521 10.9848 8.96612C11.0383 8.99703 11.0852 9.03823 11.1227 9.08733C11.1603 9.13644 11.1877 9.19249 11.2035 9.25226C11.2194 9.31202 11.2232 9.37432 11.2148 9.43557C11.2064 9.49682 11.186 9.55581 11.1548 9.60914C10.7846 10.2507 10.2519 10.7835 9.61037 11.1538C8.96885 11.5241 8.2411 11.7188 7.50038 11.7185C6.75965 11.7188 6.03191 11.5241 5.39039 11.1538C4.74886 10.7835 4.2162 10.2507 3.846 9.60914C3.78385 9.50148 3.767 9.37353 3.79918 9.25345C3.83135 9.13337 3.90991 9.03099 4.01756 8.96883Z" fill="black"/>
<path d="M6.5625 6.09375C6.5625 6.87 6.1425 7.5 5.625 7.5C5.1075 7.5 4.6875 6.87 4.6875 6.09375C4.6875 5.3175 5.1075 4.6875 5.625 4.6875C6.1425 4.6875 6.5625 5.3175 6.5625 6.09375ZM10.3125 6.09375C10.3125 6.87 9.8925 7.5 9.375 7.5C8.8575 7.5 8.4375 6.87 8.4375 6.09375C8.4375 5.3175 8.8575 4.6875 9.375 4.6875C9.8925 4.6875 10.3125 5.3175 10.3125 6.09375Z" fill="black"/>
</g>
<defs>
<clipPath id="clip0_911_2125">
<rect width="15" height="15" fill="white"/>
</clipPath>
</defs>
</svg>
