<svg width="298" height="266" viewBox="0 0 298 266" fill="none" xmlns="http://www.w3.org/2000/svg">
<path d="M297.25 119.87L265.4 88.03L296.44 55.41L280.25 40L249.59 72.22L218.14 40.77L202.34 56.58L234.18 88.42L203.14 121.04L219.33 136.45L249.99 104.23L281.44 135.68L297.25 119.87Z" fill="#FF0000"/>
<path d="M124.55 80.12L92.6098 48.18L123.74 15.46L107.5 0L76.7498 32.32L45.1998 0.77L29.3398 16.63L61.2798 48.57L30.1498 81.3L46.3898 96.76L77.1498 64.43L108.69 95.98L124.55 80.12Z" fill="black"/>
<path d="M124.34 251.051L93.4726 222.328L123.564 192.904L107.859 179L78.1489 208.057L47.6635 179.7L32.3398 193.96L63.2071 222.672L33.1153 252.107L48.8209 266L78.5308 236.943L109.016 265.3L124.34 251.051Z" fill="black"/>
<path d="M31.8 151.555L21.14 140.885L31.54 129.955L26.11 124.785L15.84 135.585L5.3 125.045L0 130.345L10.67 141.015L0.27 151.945L5.7 157.115L15.97 146.315L26.51 156.855L31.8 151.555Z" fill="#FF003D"/>
<path d="M266.14 245.77L255.47 235.1L265.87 224.17L260.44 219L250.17 229.8L239.63 219.26L234.34 224.56L245.01 235.23L234.61 246.16L240.03 251.32L250.31 240.53L260.84 251.06L266.14 245.77Z" fill="black"/>
<path d="M111.362 138.526L118.143 127.13C115.943 118.879 115.932 109.942 118.57 101.174C126.159 75.947 152.801 61.6552 178.061 69.2558C203.322 76.8564 217.647 103.475 210.058 128.702C202.468 153.929 175.827 168.221 150.567 160.62C140.013 157.443 131.391 150.954 125.452 142.635V142.657L111.362 138.537V138.526Z" fill="white"/>
<path d="M111.362 138.526C111.362 138.526 111.688 138.604 112.305 138.784C112.934 138.963 113.843 139.21 115.022 139.547C117.414 140.232 120.928 141.231 125.486 142.534L125.34 142.691V142.668C125.306 142.601 125.34 142.534 125.396 142.511C125.452 142.489 125.508 142.511 125.542 142.556C129.067 147.44 134.714 153.323 143.191 157.51C145.301 158.554 147.58 159.464 149.994 160.216C151.195 160.609 152.475 160.845 153.733 161.181C154.372 161.327 155.001 161.529 155.664 161.619C156.326 161.709 156.988 161.81 157.662 161.9C163.006 162.663 168.855 162.562 174.749 161.226C180.643 159.902 186.582 157.342 191.938 153.491C197.293 149.663 202.064 144.532 205.556 138.391C212.696 126.221 214.032 109.639 207.521 95.4705C204.242 88.2965 199.325 81.9982 193.262 77.4401C187.256 72.8146 180.318 69.7722 173.279 68.3688C166.228 67.0216 159.121 67.3359 152.644 68.9863C146.154 70.6254 140.305 73.5556 135.444 77.2605C130.571 80.9541 126.698 85.4112 123.835 90.0479C122.331 92.327 121.264 94.7632 120.22 97.0872C119.794 98.2884 119.367 99.4673 118.952 100.624C118.536 101.78 118.244 102.948 117.964 104.093C115.774 113.321 116.729 121.393 118.233 127.119C118.233 127.153 118.233 127.186 118.222 127.209C116.01 130.858 114.315 133.676 113.147 135.607C112.564 136.561 112.126 137.291 111.811 137.796C111.508 138.29 111.34 138.548 111.34 138.548C111.34 138.548 111.475 138.301 111.755 137.818C112.047 137.313 112.474 136.583 113.024 135.629C114.169 133.664 115.853 130.801 118.02 127.097V127.186C116.448 121.45 115.438 113.321 117.604 104.014C117.885 102.858 118.166 101.679 118.581 100.511C118.997 99.3438 119.412 98.1537 119.85 96.9412C120.894 94.5948 121.96 92.1361 123.465 89.8346C126.339 85.1418 130.235 80.6398 135.152 76.89C140.047 73.1402 145.964 70.1539 152.509 68.4923C159.054 66.8195 166.239 66.4827 173.38 67.8411C180.497 69.2445 187.525 72.3207 193.61 77.0023C199.752 81.6165 204.725 87.9822 208.048 95.246C208.25 95.695 208.486 96.1217 208.666 96.582L209.171 97.9629C209.508 98.8835 209.845 99.7928 210.17 100.713C210.417 101.657 210.664 102.588 210.911 103.531C211.158 104.463 211.416 105.395 211.529 106.361C211.675 107.315 211.832 108.258 211.978 109.212C212.157 110.155 212.124 111.121 212.213 112.064C212.247 113.018 212.359 113.961 212.337 114.915C212.303 115.859 212.258 116.813 212.225 117.745L212.168 119.159C212.124 119.631 212.045 120.091 211.978 120.551C211.843 121.483 211.719 122.404 211.585 123.324C211.495 124.256 211.181 125.143 210.99 126.041C210.765 126.939 210.552 127.838 210.327 128.725C209.71 130.453 209.148 132.194 208.452 133.866C208.059 134.686 207.678 135.506 207.285 136.314C206.903 137.133 206.533 137.942 206.039 138.694C202.491 144.902 197.663 150.078 192.241 153.951C186.818 157.825 180.812 160.407 174.85 161.732C168.889 163.068 162.984 163.157 157.595 162.371C156.921 162.27 156.247 162.181 155.585 162.08C154.923 161.979 154.283 161.776 153.643 161.631C152.363 161.294 151.083 161.047 149.871 160.643C147.434 159.868 145.144 158.936 143.022 157.881C134.501 153.626 128.843 147.664 125.351 142.736L125.564 142.623V142.646C125.598 142.713 125.564 142.781 125.508 142.803C125.486 142.803 125.452 142.803 125.43 142.803C120.849 141.433 117.324 140.378 114.921 139.66C113.754 139.311 112.867 139.042 112.249 138.851C111.654 138.672 111.362 138.57 111.362 138.57V138.526Z" fill="#263238"/>
<path d="M184.101 127.367L172.122 115.388L183.798 103.117L177.702 97.3125L166.172 109.438L154.339 97.6044L148.389 103.555L160.368 115.534L148.692 127.805L154.788 133.609L166.318 121.484L178.151 133.317L184.101 127.367Z" fill="#FF0000"/>
</svg>
