<svg width="32" height="32" viewBox="0 0 32 32" fill="none" xmlns="http://www.w3.org/2000/svg">
<path d="M16.4624 25.8799C21.6981 25.8799 25.9424 21.6356 25.9424 16.3999C25.9424 11.1643 21.6981 6.91992 16.4624 6.91992C11.2268 6.91992 6.98242 11.1643 6.98242 16.3999C6.98242 21.6356 11.2268 25.8799 16.4624 25.8799Z" fill="white"/>
<path d="M16.4625 22.7375C19.9626 22.7375 22.8 19.9001 22.8 16.4C22.8 12.8999 19.9626 10.0625 16.4625 10.0625C12.9624 10.0625 10.125 12.8999 10.125 16.4C10.125 19.9001 12.9624 22.7375 16.4625 22.7375Z" fill="url(#paint0_linear_895_1319)"/>
<path d="M16.3275 22.778C19.6715 22.778 22.3825 20.0671 22.3825 16.723C22.3825 13.3789 19.6715 10.668 16.3275 10.668C12.9834 10.668 10.2725 13.3789 10.2725 16.723C10.2725 20.0671 12.9834 22.778 16.3275 22.778Z" fill="white"/>
<path d="M16.4955 22.445C19.7484 22.445 22.3855 19.808 22.3855 16.555C22.3855 13.3021 19.7484 10.665 16.4955 10.665C13.2425 10.665 10.6055 13.3021 10.6055 16.555C10.6055 19.808 13.2425 22.445 16.4955 22.445Z" fill="white"/>
<path opacity="0.2" d="M16.4624 7.41992C21.4124 7.41992 25.4424 11.4474 25.4424 16.3999C25.4424 21.3524 21.4149 25.3799 16.4624 25.3799C11.5099 25.3799 7.48492 21.3499 7.48492 16.3999C7.48492 11.4499 11.5124 7.41992 16.4624 7.41992ZM16.4624 6.91992C11.2274 6.91992 6.98242 11.1649 6.98242 16.3999C6.98242 21.6349 11.2274 25.8799 16.4624 25.8799C21.6974 25.8799 25.9424 21.6349 25.9424 16.3999C25.9424 11.1649 21.6974 6.91992 16.4624 6.91992Z" fill="white"/>
<path d="M6.17543 4.77C6.15043 4.24 6.03043 4 5.81293 4C5.57293 4 5.45293 4.24 5.42793 4.77L5.14043 9.005C5.14043 9.245 4.99543 9.415 4.80293 9.415C4.63543 9.415 4.49043 9.2475 4.49043 9.005L4.15293 4.77C4.10543 4.2175 4.01043 4 3.79293 4C3.57543 4 3.45543 4.2175 3.43293 4.77L3.09543 9.005C3.04793 9.245 2.90293 9.415 2.75793 9.415C2.61293 9.415 2.47043 9.2475 2.42043 9.005L2.15793 4.77C2.11043 4.24 2.01293 4 1.77293 4C1.53293 4 1.43543 4.24 1.38793 4.77C1.26793 6.8625 1.00293 8.955 1.00293 12.325C1.00293 13.095 1.24293 13.72 1.70043 14.0825L2.56793 14.78C2.78543 14.9475 2.92793 15.2375 2.90543 15.7175L2.55543 27.645C2.54543 28.3375 3.10293 28.9075 3.79543 28.9075C4.49043 28.9075 5.04793 28.335 5.03543 27.64L4.66043 15.7175C4.63543 15.235 4.78043 14.9225 4.99793 14.755L5.86293 14.0825C6.32043 13.7225 6.58543 13.0725 6.58543 12.325C6.58293 8.9575 6.31793 6.8625 6.17543 4.77Z" fill="url(#paint1_radial_895_1319)"/>
<path opacity="0.2" d="M5.81043 6.5175C5.94043 8.09 6.08293 9.88 6.08293 12.325C6.08293 12.915 5.88293 13.425 5.55293 13.6875L4.68793 14.36C4.47293 14.5275 4.11793 14.93 4.15793 15.7325L4.53293 27.65C4.53543 27.8525 4.46043 28.0425 4.31793 28.185C4.17793 28.3275 3.99043 28.4075 3.79043 28.4075C3.59043 28.4075 3.40293 28.33 3.26293 28.1875C3.12293 28.045 3.04543 27.855 3.04793 27.66L3.39793 15.7425C3.43543 14.99 3.13043 14.5875 2.87543 14.39L2.00543 13.69C1.67793 13.43 1.49793 12.9475 1.49793 12.325C1.49793 9.935 1.63293 8.175 1.75293 6.625C1.75543 6.59 1.75793 6.5575 1.76043 6.5225L1.91793 9.0375C1.92043 9.06 1.92293 9.0825 1.92793 9.105C2.02293 9.5825 2.36293 9.915 2.75543 9.915C3.14793 9.915 3.48793 9.5825 3.58293 9.1025C3.58793 9.0825 3.59043 9.065 3.59043 9.045L3.79043 6.54L3.98793 9.0275C3.99793 9.525 4.35043 9.9125 4.80043 9.9125C5.27043 9.9125 5.62793 9.5325 5.63793 9.0225L5.81043 6.5175ZM5.81293 4C5.57293 4 5.45293 4.24 5.42793 4.77L5.14043 9.005C5.14043 9.245 4.99543 9.415 4.80293 9.415C4.63543 9.415 4.49043 9.2475 4.49043 9.005L4.15293 4.77C4.10543 4.2175 4.01043 4 3.79293 4C3.57543 4 3.45543 4.2175 3.43293 4.77L3.09543 9.005C3.04793 9.245 2.90293 9.415 2.75793 9.415C2.61293 9.415 2.47043 9.2475 2.42043 9.005L2.15793 4.77C2.11043 4.24 2.01293 4 1.77293 4C1.53293 4 1.43543 4.24 1.38793 4.77C1.26793 6.8625 1.00293 8.955 1.00293 12.325C1.00293 13.095 1.24293 13.72 1.70043 14.0825L2.56793 14.78C2.78543 14.9475 2.92793 15.2375 2.90543 15.7175L2.55543 27.645C2.54543 28.3375 3.10293 28.9075 3.79543 28.9075C4.49043 28.9075 5.04793 28.335 5.03543 27.64L4.66043 15.7175C4.63543 15.235 4.78043 14.9225 4.99793 14.755L5.86293 14.0825C6.32043 13.7225 6.58543 13.0725 6.58543 12.325C6.58543 8.9575 6.32043 6.865 6.17543 4.77C6.15043 4.24 6.03043 4 5.81293 4Z" fill="white"/>
<path d="M30.4995 15.8925V5.02252C30.4995 4.11002 30.2345 3.86252 29.7095 4.20752C28.3745 5.08502 27.082 9.35502 27.082 14.585C27.082 16.5125 28.987 16.2525 29.072 16.8275L28.482 27.7075C28.472 28.4 29.037 28.97 29.7295 28.97C30.4245 28.97 30.867 28.3975 30.8545 27.7025L30.4995 15.8925Z" fill="url(#paint2_radial_895_1319)"/>
<path opacity="0.2" d="M29.9745 4.63207C29.9895 4.71457 29.9995 4.83957 29.9995 5.02207V15.8921V15.9071L30.3545 27.7121C30.3595 27.9496 30.2845 28.1646 30.1495 28.3046C30.042 28.4146 29.8995 28.4696 29.732 28.4696C29.5295 28.4696 29.3395 28.3896 29.197 28.2446C29.057 28.1021 28.982 27.9171 28.982 27.7221L29.572 16.8521C29.5745 16.8196 29.572 16.7871 29.567 16.7546C29.497 16.2696 29.037 16.0871 28.6695 15.9396C28.1095 15.7171 27.582 15.5046 27.582 14.5846C27.582 9.13207 28.967 5.31207 29.9745 4.63207ZM30.0945 4.05957C29.987 4.05957 29.8595 4.10957 29.7095 4.20707C28.3745 5.08457 27.082 9.35457 27.082 14.5846C27.082 16.5121 28.987 16.2521 29.072 16.8271L28.482 27.7071C28.472 28.3996 29.037 28.9696 29.7295 28.9696C30.4245 28.9696 30.867 28.3971 30.8545 27.7021L30.4995 15.8921V5.02207C30.4995 4.37207 30.3645 4.05957 30.0945 4.05957Z" fill="white"/>
<defs>
<linearGradient id="paint0_linear_895_1319" x1="19.5475" y1="12.6232" x2="12.6725" y2="21.04" gradientUnits="userSpaceOnUse">
<stop offset="0.00022998"/>
<stop offset="0.1211"/>
<stop offset="0.4234"/>
<stop offset="0.7183"/>
<stop offset="0.9949"/>
</linearGradient>
<radialGradient id="paint1_radial_895_1319" cx="0" cy="0" r="1" gradientUnits="userSpaceOnUse" gradientTransform="translate(3.79318 16.453) scale(9.024)">
<stop stop-color="white"/>
<stop offset="0.0001" stop-color="white"/>
<stop offset="0.075" stop-color="white"/>
<stop offset="0.1684" stop-color="white"/>
<stop offset="0.7755" stop-color="white"/>
<stop offset="1" stop-color="white"/>
</radialGradient>
<radialGradient id="paint2_radial_895_1319" cx="0" cy="0" r="1" gradientUnits="userSpaceOnUse" gradientTransform="translate(28.9695 16.514) scale(7.07175 7.07175)">
<stop offset="0.0017339" stop-color="white"/>
<stop offset="0.1847" stop-color="white"/>
<stop offset="0.5159" stop-color="white"/>
<stop offset="0.7993" stop-color="white"/>
<stop offset="1" stop-color="white"/>
</radialGradient>
</defs>
</svg>
