<svg width="283" height="188" viewBox="0 0 283 188" fill="none" xmlns="http://www.w3.org/2000/svg">
<path d="M105.673 21.5004C105.893 19.3602 107.367 18.1981 109.188 18.3823C111.03 18.5666 112.242 19.998 112.03 22.1381C111.81 24.2995 110.336 25.4404 108.493 25.2491C106.672 25.0648 105.453 23.6546 105.673 21.4933V21.5004ZM116.508 19.2823L119.059 19.5374L109.344 31.0812L106.793 30.8261L116.508 19.2894V19.2823ZM109.889 21.9255C110.017 20.6712 109.627 20.1256 109.025 20.0689C108.458 20.0122 107.934 20.4586 107.806 21.72C107.678 22.9743 108.104 23.52 108.671 23.5767C109.273 23.6405 109.769 23.1869 109.889 21.9326V21.9255ZM113.83 28.2254C114.049 26.0853 115.502 24.9231 117.344 25.1074C119.187 25.2916 120.399 26.7231 120.186 28.8632C119.966 31.0245 118.492 32.1655 116.65 31.9741C114.807 31.7899 113.61 30.3797 113.83 28.2183V28.2254ZM118.046 28.6506C118.174 27.3963 117.762 26.8506 117.181 26.7939C116.6 26.7372 116.09 27.1837 115.963 28.438C115.835 29.6923 116.246 30.2379 116.827 30.2946C117.408 30.3513 117.925 29.9049 118.046 28.6506Z" fill="#E0E0E0"/>
<path d="M177.182 12.0611C176.403 7.41952 178.564 3.82668 182.511 3.16764C186.465 2.50152 189.633 5.15185 190.42 9.836C191.206 14.5201 189.08 18.0634 185.126 18.7224C181.172 19.3885 177.962 16.7028 177.182 12.0541V12.0611ZM187.812 10.2754C187.238 6.8526 185.388 5.0739 182.901 5.48491C180.456 5.89593 179.259 8.23446 179.825 11.6147C180.392 14.9949 182.292 16.8162 184.736 16.4051C187.224 15.987 188.386 13.6981 187.812 10.2754ZM199.745 0.524397L202.885 0L188.202 31.7827L185.062 32.3071L199.745 0.524397ZM197.527 22.4711C196.748 17.8295 198.867 14.2438 202.821 13.5847C206.775 12.9186 209.985 15.6044 210.765 20.246C211.544 24.8876 209.383 28.4804 205.429 29.1395C201.475 29.8056 198.3 27.1128 197.52 22.4711H197.527ZM208.122 20.6924C207.555 17.3122 205.656 15.4981 203.211 15.9091C200.723 16.3272 199.561 18.6161 200.135 22.0389C200.709 25.4616 202.559 27.2474 205.046 26.8293C207.491 26.4183 208.689 24.0798 208.122 20.6995V20.6924Z" fill="#E0E0E0"/>
<path d="M87.9358 85.8875C87.8862 84.4915 88.6587 83.5278 89.8704 83.4852C91.0822 83.4427 91.9397 84.3285 91.9964 85.7316C92.0531 87.1348 91.2594 88.0914 90.0476 88.134C88.8358 88.1765 87.9925 87.2765 87.9358 85.8875ZM90.9972 85.7742C90.9618 84.8317 90.5578 84.3144 89.8988 84.3356C89.2681 84.3569 88.8784 84.9167 88.9138 85.8521C88.9492 86.7875 89.3815 87.3119 90.0122 87.2907C90.6641 87.2623 91.0326 86.7167 90.9972 85.7742ZM94.9585 83.3789L96.142 83.3364L90.6712 92.0315L89.4878 92.074L94.9585 83.3789ZM93.6404 89.6788C93.5908 88.2828 94.3633 87.319 95.575 87.2765C96.7868 87.234 97.6443 88.134 97.701 89.5229C97.7506 90.9118 96.964 91.8827 95.7522 91.9252C94.5404 91.9677 93.6971 91.0677 93.6404 89.6788ZM96.7018 89.5654C96.6664 88.63 96.2483 88.1056 95.6034 88.1269C94.9585 88.1481 94.5829 88.7009 94.6184 89.6434C94.6538 90.5859 95.0719 91.1032 95.7168 91.0819C96.3616 91.0607 96.7372 90.4937 96.7018 89.5654Z" fill="#E0E0E0"/>
<path d="M220.629 86.306C220.58 84.91 221.352 83.9462 222.564 83.9037C223.776 83.8612 224.633 84.747 224.69 86.1501C224.746 87.5532 223.953 88.5099 222.741 88.5524C221.529 88.5949 220.686 87.695 220.629 86.306ZM223.691 86.1926C223.655 85.2501 223.251 84.7328 222.592 84.7541C221.961 84.7753 221.572 85.3352 221.607 86.2706C221.643 87.206 222.075 87.7304 222.706 87.7091C223.358 87.6808 223.726 87.1351 223.691 86.1926ZM227.652 83.7974L228.835 83.7549L223.365 92.45L222.181 92.4925L227.652 83.7974ZM226.334 90.0973C226.284 88.7012 227.057 87.7375 228.268 87.6949C229.48 87.6524 230.338 88.5524 230.394 89.9414C230.444 91.3303 229.657 92.3011 228.446 92.3437C227.234 92.3862 226.391 91.4862 226.334 90.0973ZM229.395 89.9839C229.36 89.0485 228.942 88.5241 228.297 88.5453C227.652 88.5666 227.276 89.1193 227.312 90.0618C227.347 91.0043 227.765 91.5216 228.41 91.5004C229.055 91.4791 229.431 90.9122 229.395 89.9839Z" fill="#E0E0E0"/>
<path d="M114.269 58.8104L119.831 61.8576L114.269 64.9048L111.221 70.4676L108.181 64.9048L102.611 61.8576L108.181 58.8104L111.221 53.2476L114.269 58.8104Z" fill="#EBEBEB"/>
<path d="M97.2829 51.1289L99.182 52.1706L97.2829 53.2052L96.2482 55.0973L95.2136 53.2052L93.3145 52.1706L95.2136 51.1289L96.2482 49.2368L97.2829 51.1289Z" fill="#EBEBEB"/>
<path d="M78.7868 100.613L80.6859 101.648L78.7868 102.69L77.7522 104.582L76.7175 102.69L74.8184 101.648L76.7175 100.613L77.7522 98.7212L78.7868 100.613Z" fill="#EBEBEB"/>
<path d="M187.132 55.2248L190.555 57.1027L187.132 58.9735L185.261 62.3892L183.39 58.9735L179.975 57.1027L183.39 55.2248L185.261 51.8091L187.132 55.2248Z" fill="#EBEBEB"/>
<path d="M212.061 105.326L215.151 107.707L211.48 109.025L209.106 112.115L207.788 108.444L204.691 106.07L208.362 104.752L210.743 101.662L212.061 105.326Z" fill="#EBEBEB"/>
<path d="M159.863 75.2651L162.259 76.569L159.863 77.88L158.559 80.2681L157.256 77.88L154.86 76.569L157.256 75.2651L158.559 72.877L159.863 75.2651Z" fill="#EBEBEB"/>
<path d="M263.651 150.417C265.338 151.147 266.578 152.706 267.202 154.435C267.825 156.164 267.882 158.049 267.669 159.878C267.272 163.407 265.26 166.978 263.099 169.799C260.122 167.205 259.442 162.677 259.236 160.352C258.918 156.689 260.562 149.871 263.651 150.417Z" fill="#FFA301"/>
<path d="M266.556 175.624C266.082 173.625 266.911 171.435 268.441 170.075C269.972 168.707 272.112 168.133 274.16 168.289C275.11 168.36 276.13 168.636 276.669 169.416C277.172 170.146 277.115 171.159 276.704 171.946C276.293 172.732 275.585 173.32 274.833 173.788C272.254 175.404 269.469 176.495 266.549 175.624" fill="#FFA301"/>
<path d="M262.744 186.459C262.744 186.459 262.765 186.196 262.85 185.736C262.943 185.226 263.063 184.567 263.212 183.773C263.538 182.136 263.963 179.783 265.239 177.508C266.493 175.234 268.257 173.561 269.738 172.732C270.475 172.307 271.12 172.052 271.574 171.924C271.801 171.846 271.985 171.818 272.105 171.79C272.226 171.761 272.29 171.754 272.297 171.761C272.318 171.818 271.269 172.009 269.838 172.888C268.406 173.746 266.705 175.404 265.472 177.636C264.225 179.868 263.772 182.186 263.403 183.815C263.226 184.637 263.077 185.304 262.964 185.764C262.85 186.225 262.78 186.473 262.758 186.466L262.744 186.459Z" fill="black"/>
<path d="M262.858 155.718C262.858 155.718 262.879 155.824 262.893 156.037C262.907 156.271 262.922 156.575 262.95 156.944C262.992 157.737 263.042 158.878 263.085 160.296C263.177 163.123 263.248 167.035 263.233 171.358C263.212 175.68 263.106 179.592 262.992 182.42C262.936 183.837 262.879 184.978 262.829 185.771C262.801 186.147 262.787 186.445 262.766 186.678C262.751 186.884 262.737 186.997 262.723 186.997C262.716 186.997 262.709 186.884 262.709 186.678C262.709 186.445 262.716 186.14 262.723 185.764C262.744 184.942 262.773 183.801 262.801 182.412C262.872 179.585 262.95 175.673 262.964 171.358C262.985 167.042 262.936 163.13 262.893 160.303C262.872 158.914 262.851 157.773 262.844 156.951C262.844 156.575 262.844 156.278 262.844 156.037C262.844 155.831 262.844 155.718 262.858 155.718Z" fill="black"/>
<path d="M261.412 177.778C260.732 173.505 257.854 169.643 253.95 167.772C252.958 167.297 251.661 166.985 250.839 167.722C250.024 168.466 250.201 169.791 250.605 170.819C252.27 175.099 256.742 178.118 261.334 178.068" fill="#FFA301"/>
<path d="M254.432 171.117C254.432 171.117 254.666 171.202 255.062 171.393C255.261 171.485 255.509 171.606 255.778 171.776C256.047 171.946 256.366 172.109 256.685 172.343C257.011 172.569 257.373 172.817 257.727 173.122C258.095 173.413 258.457 173.76 258.832 174.128C259.562 174.887 260.299 175.787 260.93 176.828C261.554 177.877 262 178.954 262.312 179.961C262.454 180.471 262.588 180.953 262.659 181.413C262.758 181.874 262.794 182.306 262.836 182.703C262.893 183.1 262.872 183.461 262.886 183.773C262.9 184.092 262.886 184.361 262.865 184.581C262.829 185.02 262.808 185.268 262.787 185.268C262.73 185.268 262.829 184.283 262.659 182.724C262.609 182.335 262.56 181.909 262.454 181.456C262.376 181.002 262.234 180.527 262.085 180.031C261.766 179.046 261.32 177.998 260.71 176.963C260.094 175.943 259.371 175.05 258.662 174.299C258.294 173.93 257.947 173.583 257.592 173.292C257.252 172.98 256.898 172.732 256.586 172.499C255.31 171.584 254.41 171.173 254.439 171.124L254.432 171.117Z" fill="black"/>
<path d="M282.14 186.997C282.14 187.096 218.971 187.181 141.077 187.181C63.1828 187.181 0 187.096 0 186.997C0 186.898 63.1545 186.813 141.077 186.813C219 186.813 282.14 186.898 282.14 186.997Z" fill="black"/>
<path d="M142.564 93.8485L155.04 85.9537C160.827 88.8319 167.43 90.3204 174.267 89.9498C193.935 88.8838 208.123 72.8891 205.964 54.2176C203.805 35.546 186.117 21.2881 166.45 22.3541C146.782 23.42 132.594 39.4148 134.753 58.0863C135.654 65.8777 139.271 72.9002 144.604 78.3637L144.585 78.3648L142.554 93.849L142.564 93.8485Z" fill="white"/>
<path d="M142.565 93.8516C142.658 93.1321 143.263 88.2187 144.485 78.3356C144.488 78.2798 144.542 78.2398 144.603 78.255C144.622 78.254 144.633 78.2627 144.644 78.2714L144.663 78.2703L144.535 78.435C142.739 76.5931 140.917 74.3629 139.312 71.7219C137.725 69.0707 136.335 66.0099 135.452 62.606C135.021 60.9035 134.667 59.1134 134.551 57.2639C134.503 56.3387 134.413 55.3971 134.392 54.4518C134.429 53.5034 134.475 52.5452 134.518 51.5686C134.872 47.6988 135.953 43.6967 137.912 39.9255C139.869 36.1451 142.704 32.5954 146.363 29.6692C150.013 26.7527 154.467 24.4422 159.455 23.2069C164.445 21.9807 169.913 21.7679 175.343 22.7448C180.756 23.7412 186.18 25.8504 190.829 29.1986L192.591 30.4949C193.178 30.9178 193.688 31.4376 194.24 31.8994C194.765 32.3905 195.343 32.8232 195.825 33.3538L197.295 34.9072C197.802 35.4086 198.229 35.97 198.664 36.5217C199.099 37.0734 199.525 37.6256 199.96 38.1773C200.34 38.7598 200.711 39.3428 201.091 39.9254C201.451 40.5089 201.868 41.0709 202.146 41.6961C204.743 46.4916 206.136 51.6864 206.326 56.7144C206.527 61.7419 205.566 66.6189 203.603 70.8635C201.662 75.1163 198.839 78.7674 195.536 81.6465C192.244 84.5343 188.481 86.6496 184.654 88.0354C180.807 89.4223 176.899 89.9495 173.235 90.1295C169.562 90.2266 166.108 89.7735 163.04 89.0212C159.971 88.2597 157.276 87.1809 154.984 86.0432L155.091 86.0375C147.077 91.0276 143.147 93.4767 142.546 93.8526C143.137 93.468 147.022 90.9749 154.965 85.8773C154.992 85.8572 155.04 85.8546 155.072 85.8715C157.361 86.9907 160.034 88.0428 163.091 88.7865C166.139 89.5306 169.56 89.9576 173.203 89.8529C176.826 89.6566 180.704 89.1217 184.512 87.7369C188.3 86.3532 192.015 84.2497 195.271 81.3825C198.527 78.5245 201.314 74.9032 203.223 70.6986C205.161 66.5016 206.099 61.6815 205.896 56.7099C205.692 51.7383 204.317 46.6075 201.726 41.8673C201.449 41.2513 201.034 40.6986 200.684 40.1237C200.314 39.5499 199.945 38.9761 199.576 38.4023C199.151 37.8593 198.727 37.3163 198.291 36.7646C197.866 36.2124 197.44 35.6601 196.944 35.1675L195.495 33.6314C195.025 33.1095 194.447 32.6769 193.932 32.1945C193.389 31.7321 192.89 31.221 192.305 30.8073L190.564 29.5284C185.969 26.2237 180.616 24.1385 175.263 23.1481C169.892 22.1773 164.492 22.3865 159.558 23.591C154.626 24.8047 150.208 27.0855 146.602 29.9624C142.987 32.8492 140.168 36.3608 138.225 40.0941C136.272 43.8279 135.195 47.7834 134.836 51.6163C134.792 52.5837 134.745 53.5327 134.707 54.4719C134.729 55.4171 134.816 56.3403 134.863 57.2563C134.977 59.0873 135.319 60.8596 135.74 62.5533C136.6 65.9398 137.968 68.974 139.534 71.6171C141.119 74.2498 142.911 76.4724 144.687 78.3061C144.731 78.3501 144.729 78.4152 144.683 78.4455C144.648 78.4753 144.589 78.4784 144.557 78.4524L144.538 78.4534L144.695 78.3799C143.334 88.2427 142.66 93.1506 142.566 93.8608L142.565 93.8516Z" fill="black"/>
<path d="M189.889 43.6263C189.8 43.1736 189.197 42.0588 188.972 41.882C183.684 34.2408 172.59 39.6956 176.766 47.998C181.278 55.9874 193.094 52.1917 189.885 43.6268L189.889 43.6263Z" fill="#332C45"/>
<path d="M188.319 45.1716C187.744 46.0196 186.705 46.3959 185.612 46.2165C184.486 46.032 183.523 45.3099 182.513 44.784C181.974 44.5028 181.426 44.2937 180.84 44.2086C180.163 44.1123 179.407 44.1006 178.853 44.4502C178.097 44.9301 178.081 45.8442 177.93 46.6771C178.003 46.8544 178.08 47.0311 178.171 47.2107C181.391 52.9154 189.518 50.6967 188.424 44.9952C188.389 45.0525 188.359 45.1137 188.323 45.1711L188.319 45.1716Z" fill="black"/>
<path d="M177.411 44.0279C177.927 45.8275 180.464 46.5203 181.617 45.2443C183.219 43.9627 182.122 41.0638 179.929 40.78C178.096 40.5011 176.663 42.3123 177.415 44.0274L177.411 44.0279Z" fill="white"/>
<path d="M182.587 41.4114C182.831 42.2609 184.027 42.5857 184.569 41.9844C185.323 41.3793 184.805 40.0129 183.771 39.8766C182.909 39.7458 182.23 40.5971 182.586 41.4072L182.587 41.4114Z" fill="white"/>
<path d="M183.635 50.1487C183.836 50.8562 184.832 51.1269 185.285 50.6271C185.916 50.1233 185.482 48.9847 184.62 48.8754C183.901 48.7663 183.338 49.4786 183.631 50.1492L183.635 50.1487Z" fill="white"/>
<path d="M184.665 47.9245C184.801 48.3933 185.458 48.5748 185.758 48.2401C186.176 47.9045 185.89 47.1546 185.319 47.0798C184.845 47.0065 184.468 47.4801 184.665 47.9245Z" fill="white"/>
<path d="M186.583 47.4323C185.881 50.8151 189.611 49.6375 189.204 46.6197C188.976 44.8965 186.938 45.5276 186.583 47.4323Z" fill="white"/>
<path d="M162.145 47.9159C162.056 47.4632 161.457 46.3479 161.228 46.1716C155.94 38.5304 144.846 43.9852 149.022 52.2875C153.534 60.277 165.35 56.4813 162.141 47.9164L162.145 47.9159Z" fill="#332C45"/>
<path d="M160.576 49.4607C160 50.3087 158.962 50.685 157.869 50.5055C156.743 50.321 155.78 49.599 154.77 49.073C154.231 48.7919 153.683 48.5828 153.097 48.4977C152.42 48.4014 151.664 48.3897 151.11 48.7393C150.354 49.2191 150.338 50.1333 150.187 50.9662C150.26 51.1434 150.337 51.3202 150.428 51.4997C153.647 57.2044 161.775 54.9857 160.681 49.2842C160.646 49.3416 160.615 49.4028 160.58 49.4601L160.576 49.4607Z" fill="black"/>
<path d="M149.667 48.3174C150.183 50.117 152.719 50.8098 153.873 49.5339C155.474 48.2522 154.378 45.3534 152.185 45.0696C150.351 44.7906 148.919 46.6019 149.671 48.3169L149.667 48.3174Z" fill="white"/>
<path d="M154.844 45.701C155.088 46.5505 156.283 46.8752 156.825 46.2739C157.58 45.6689 157.062 44.3025 156.028 44.1661C155.166 44.0353 154.487 44.8867 154.843 45.6968L154.844 45.701Z" fill="white"/>
<path d="M155.891 54.4377C156.092 55.1452 157.088 55.416 157.541 54.9161C158.172 54.4124 157.738 53.2738 156.876 53.1645C156.157 53.0554 155.593 53.7676 155.886 54.4382L155.891 54.4377Z" fill="white"/>
<path d="M156.921 52.214C157.058 52.6828 157.715 52.8643 158.015 52.5297C158.432 52.194 158.147 51.4442 157.576 51.3693C157.101 51.296 156.725 51.7697 156.921 52.214Z" fill="white"/>
<path d="M158.84 51.7218C158.138 55.1046 161.868 53.9271 161.461 50.9093C161.233 49.1861 159.195 49.8171 158.84 51.7218Z" fill="white"/>
<g opacity="0.5">
<path d="M152.275 59.3742C152.62 60.981 150.702 62.5727 147.988 62.9247C145.275 63.2767 142.797 62.2594 142.451 60.6483C142.106 59.0373 144.024 57.4497 146.738 57.0978C149.451 56.7458 151.929 57.7631 152.275 59.3742Z" fill="#FFA301"/>
<path d="M197.989 52.3072C198.333 53.914 196.416 55.5058 193.702 55.8578C190.989 56.2097 188.511 55.1925 188.165 53.5814C187.82 51.9704 189.738 50.3828 192.452 50.0309C195.165 49.6789 197.643 50.6961 197.989 52.3072Z" fill="#FFA301"/>
</g>
<path d="M176.674 59.6472C174.615 56.0002 169.706 46.9318 167.64 55.4876C167.207 57.2294 166.991 59.1041 166.783 60.9734C166.753 61.4366 166.023 61.4488 165.926 60.9854C165.307 57.8398 165.091 53.0245 167.603 50.6484C168.57 49.7242 170.368 49.4848 171.659 50.1165C174.987 51.719 176.708 56.338 177.387 59.4671C177.471 59.8685 176.865 60.0258 176.679 59.6508L176.674 59.6472Z" fill="#332C45"/>
<path d="M169.662 53.2421C169.977 54.7709 169.806 56.2866 169.34 57.7296C169.272 57.9269 168.966 57.9268 168.875 57.7344C168.5 56.9704 168.459 56.1565 168.526 55.3615C168.496 55.0437 169.15 52.3546 169.662 53.2421Z" fill="#332C45"/>
<path d="M171.221 53.3227C171.906 53.6211 172.325 54.2072 172.483 54.8663C172.555 55.1506 172.593 55.956 172.046 55.7314C171.417 55.3835 171.057 54.8273 170.895 54.1897C170.844 53.9446 170.703 53.1699 171.22 53.3186L171.221 53.3227Z" fill="#332C45"/>
<path d="M185.301 186.281C189.833 186.281 193.507 182.607 193.507 178.075C193.507 173.543 189.833 169.869 185.301 169.869C180.769 169.869 177.095 173.543 177.095 178.075C177.095 182.607 180.769 186.281 185.301 186.281Z" fill="black"/>
<path d="M185.301 182.547C187.77 182.547 189.772 180.545 189.772 178.075C189.772 175.605 187.77 173.604 185.301 173.604C182.831 173.604 180.829 175.605 180.829 178.075C180.829 180.545 182.831 182.547 185.301 182.547Z" fill="#E0E0E0"/>
<path d="M199.48 164.731V170.216L186.753 180.47C186.753 180.47 185.747 181.207 184.797 181.314C183.848 181.413 182.962 180.881 182.962 179.471C182.962 176.8 186.285 169.026 186.285 169.026H188.95V164.731H199.488H199.48Z" fill="#455A64"/>
<path d="M184.585 178.791C184.585 178.791 184.422 178.472 184.79 178.118C184.968 177.955 185.279 177.848 185.605 177.962C185.924 178.061 186.208 178.394 186.201 178.791C186.201 179.188 185.917 179.528 185.605 179.62C185.287 179.726 184.968 179.62 184.79 179.464C184.429 179.11 184.55 178.77 184.585 178.791C184.642 178.784 184.656 179.067 184.946 179.259C185.088 179.351 185.294 179.386 185.485 179.308C185.676 179.23 185.832 179.032 185.832 178.798C185.832 178.564 185.676 178.359 185.485 178.288C185.294 178.21 185.088 178.245 184.946 178.337C184.656 178.529 184.642 178.812 184.585 178.805V178.791Z" fill="black"/>
<path d="M186.278 169.026C186.278 168.976 187.015 168.927 188.213 168.905C189.411 168.884 191.062 168.905 192.883 168.948C194.64 169.005 196.228 169.054 197.546 169.097C198.736 169.146 199.48 169.189 199.48 169.238C199.48 169.288 198.743 169.338 197.546 169.359C196.348 169.38 194.697 169.359 192.876 169.316C191.118 169.26 189.531 169.21 188.213 169.168C187.022 169.118 186.278 169.075 186.278 169.026Z" fill="black"/>
<path d="M85.7715 186.366C90.3037 186.366 93.9777 182.692 93.9777 178.16C93.9777 173.628 90.3037 169.954 85.7715 169.954C81.2394 169.954 77.5654 173.628 77.5654 178.16C77.5654 182.692 81.2394 186.366 85.7715 186.366Z" fill="black"/>
<path d="M85.7714 182.632C88.2409 182.632 90.2429 180.63 90.2429 178.161C90.2429 175.691 88.2409 173.689 85.7714 173.689C83.3018 173.689 81.2998 175.691 81.2998 178.161C81.2998 180.63 83.3018 182.632 85.7714 182.632Z" fill="#E0E0E0"/>
<path d="M99.9443 163.25V170.294L87.217 180.549C87.217 180.549 86.2108 181.285 85.2612 181.392C84.3116 181.491 83.4258 180.96 83.4258 179.549C83.4258 176.878 86.7493 169.104 86.7493 169.104H89.4138V163.25H99.9514H99.9443Z" fill="#455A64"/>
<path d="M85.0557 178.876C85.0557 178.876 84.8927 178.557 85.2612 178.203C85.4383 178.04 85.7502 177.934 86.0761 178.047C86.395 178.146 86.6785 178.479 86.6714 178.876C86.6714 179.273 86.3879 179.613 86.0761 179.705C85.7572 179.812 85.4383 179.705 85.2612 179.55C84.8998 179.195 85.0203 178.855 85.0557 178.876C85.1124 178.869 85.1265 179.153 85.4171 179.344C85.5588 179.436 85.7643 179.472 85.9557 179.394C86.147 179.316 86.3029 179.117 86.3029 178.883C86.3029 178.65 86.147 178.444 85.9557 178.373C85.7643 178.295 85.5588 178.331 85.4171 178.423C85.1265 178.614 85.1124 178.898 85.0557 178.89V178.876Z" fill="black"/>
<path d="M86.749 169.111C86.749 169.062 87.486 169.012 88.6836 168.991C89.8812 168.969 91.5324 168.991 93.3536 169.033C95.111 169.09 96.6984 169.14 98.0165 169.182C99.207 169.232 99.9511 169.274 99.9511 169.324C99.9511 169.373 99.2141 169.423 98.0165 169.444C96.8189 169.466 95.1677 169.444 93.3465 169.402C91.5891 169.345 90.0017 169.295 88.6836 169.253C87.4931 169.203 86.749 169.161 86.749 169.111Z" fill="black"/>
<path d="M124.825 126.436C122.387 126.436 120.19 124.877 119.39 122.546L95.4375 52.3188L222.491 72.8554L219.571 115.743C219.394 118.386 217.261 120.512 214.617 120.682L125.186 126.429C125.066 126.436 124.938 126.443 124.818 126.443L124.825 126.436ZM97.5422 54.0975L120.729 122.092C121.36 123.935 123.16 125.139 125.094 125.012L214.525 119.265C216.467 119.137 218.026 117.585 218.161 115.643L220.988 74.0459L97.5351 54.0905L97.5422 54.0975Z" fill="#455A64"/>
<path d="M101.206 68.8585L95.8912 64.8122L90.6472 49.5409L86.041 46.8763L86.7567 45.6504L91.8165 48.5771L97.0959 63.9405L102.071 67.7318L101.206 68.8585Z" fill="#455A64"/>
<path d="M101.022 65.5202L100.829 66.9243L221.017 83.4094L221.209 82.0052L101.022 65.5202Z" fill="#455A64"/>
<path d="M108.024 86.2258L107.94 87.6406L220.8 94.3259L220.884 92.9111L108.024 86.2258Z" fill="#455A64"/>
<path d="M219.463 104.032L114.981 106.787L115.019 108.203L219.501 105.449L219.463 104.032Z" fill="#455A64"/>
<path d="M218.848 114.733L119.548 119.537L119.616 120.953L218.916 116.148L218.848 114.733Z" fill="#455A64"/>
<path d="M210.096 119.414L208.686 119.293C210.011 103.469 210.904 87.3971 211.322 71.5234L212.739 71.5589C212.314 87.4609 211.428 103.561 210.096 119.407V119.414Z" fill="#455A64"/>
<path d="M201.94 120.236H200.522C200.522 119.888 200.763 86.6175 201.181 70.8359L202.599 70.8714C202.181 86.6387 201.94 119.903 201.94 120.236Z" fill="#455A64"/>
<path d="M192.267 68.2356L190.851 68.2729L192.225 120.397L193.641 120.36L192.267 68.2356Z" fill="#455A64"/>
<path d="M180.633 66.6379L179.22 66.7427L183.276 121.456L184.689 121.351L180.633 66.6379Z" fill="#455A64"/>
<path d="M166.332 64.0457L164.928 64.2344L172.734 122.353L174.139 122.164L166.332 64.0457Z" fill="#455A64"/>
<path d="M150.789 61.1621L149.396 61.4224L160.946 123.259L162.339 122.999L150.789 61.1621Z" fill="#455A64"/>
<path d="M132.426 58.7388L131.052 59.0869L147.511 124.036L148.884 123.688L132.426 58.7388Z" fill="#455A64"/>
<path d="M109.42 54.9749L108.072 55.4131L131.812 128.433L133.16 127.994L109.42 54.9749Z" fill="#455A64"/>
<path d="M203.818 166.007H203.789L87.9046 164.115C87.4298 164.108 86.9834 163.91 86.6574 163.569C86.3314 163.229 86.1543 162.769 86.1613 162.301C86.2109 160.225 86.5086 149.744 87.3164 147.434C87.607 146.612 88.0818 145.237 107.329 135.805C109.242 134.869 126.058 126.649 128.375 126.521C130.778 126.387 152.15 125.48 153.057 125.437C154.014 125.402 154.857 126.153 154.9 127.131C154.942 128.109 154.184 128.938 153.206 128.973C152.987 128.98 131.323 129.902 128.638 130.051C125.597 130.702 93.8927 145.917 90.5904 148.844C90.2431 150.353 89.9172 155.562 89.7471 160.593L203.839 162.457C204.817 162.471 205.596 163.279 205.582 164.257C205.568 165.228 204.774 166 203.811 166L203.818 166.007Z" fill="#455A64"/>
<path d="M152.718 163.059L137.999 162.698C135.221 162.556 133.145 161.734 131.806 160.246C130.537 158.836 129.97 156.894 130.112 154.463C130.24 152.309 130.984 150.119 132.266 148.128L146.503 127.074L147.679 127.868L133.45 148.908C132.309 150.679 131.643 152.635 131.529 154.541C131.409 156.575 131.862 158.177 132.862 159.296C133.939 160.494 135.682 161.16 138.056 161.281L152.753 161.642L152.718 163.059Z" fill="#455A64"/>
<path d="M148.636 127.74C136.773 106.374 105.656 50.5403 104.097 48.7616C103.155 47.9183 95.5651 45.2467 91.0156 43.7727L91.455 42.4263C92.688 42.8302 103.559 46.3805 105.075 47.734C106.542 49.045 142.655 114.035 149.883 127.053L148.643 127.74H148.636Z" fill="#455A64"/>
<path d="M94.2897 43.5177L86.4805 48.2585C86.4805 48.2585 77.4665 44.1767 76.7083 43.213C75.9571 42.2492 75.7445 38.6564 78.8555 37.9832C81.9664 37.31 94.2827 43.5177 94.2827 43.5177H94.2897Z" fill="#455A64"/>
<path d="M79.2658 41.1648C79.2658 41.1648 79.2091 41.0302 79.2445 40.7892C79.28 40.5483 79.4146 40.1869 79.7689 39.8892C80.1091 39.5916 80.7114 39.4145 81.2996 39.62C81.8878 39.8113 82.4051 40.4349 82.398 41.1648C82.4051 41.9018 81.8878 42.5254 81.2996 42.7097C80.7044 42.9152 80.1091 42.738 79.7689 42.4404C79.4146 42.1427 79.28 41.7813 79.2445 41.5404C79.2091 41.2924 79.2445 41.1648 79.2658 41.1648C79.2942 41.1648 79.3083 41.2995 79.3792 41.505C79.45 41.7105 79.606 42.0081 79.9248 42.2349C80.2296 42.4545 80.7185 42.575 81.1862 42.3908C81.6468 42.2278 82.0366 41.7317 82.0366 41.1648C82.0366 40.5979 81.6468 40.1018 81.1862 39.9389C80.7256 39.7617 80.2366 39.8751 79.9248 40.0948C79.606 40.3144 79.45 40.6121 79.3792 40.8247C79.3083 41.0373 79.2942 41.1719 79.2658 41.1648Z" fill="black"/>
<path d="M87.9326 163.803C87.9326 163.704 113.827 164.037 145.765 164.547C177.711 165.057 203.598 165.553 203.598 165.66C203.598 165.759 177.704 165.426 145.758 164.916C113.827 164.405 87.9326 163.909 87.9326 163.803Z" fill="black"/>
</svg>
