<svg width="28" height="28" viewBox="0 0 28 28" fill="none" xmlns="http://www.w3.org/2000/svg">
<g clip-path="url(#clip0_906_1565)">
<path d="M14.0003 24.4998C13.8467 24.5007 13.6945 24.4712 13.5524 24.4132C13.4102 24.3551 13.2809 24.2696 13.1719 24.1614L4.10692 15.0848C2.96985 13.9358 2.33203 12.3846 2.33203 10.7681C2.33203 9.15161 2.96985 7.6004 4.10692 6.45144C5.2529 5.3087 6.80523 4.66699 8.42359 4.66699C10.042 4.66699 11.5943 5.3087 12.7403 6.45144L14.0003 7.71144L15.2603 6.45144C16.4062 5.3087 17.9586 4.66699 19.5769 4.66699C21.1953 4.66699 22.7476 5.3087 23.8936 6.45144C25.0307 7.6004 25.6685 9.15161 25.6685 10.7681C25.6685 12.3846 25.0307 13.9358 23.8936 15.0848L14.8286 24.1614C14.7196 24.2696 14.5903 24.3551 14.4481 24.4132C14.306 24.4712 14.1538 24.5007 14.0003 24.4998Z" fill="#231F20"/>
</g>
<defs>
<clipPath id="clip0_906_1565">
<rect width="28" height="28" fill="white"/>
</clipPath>
</defs>
</svg>
