<svg width="55" height="55" viewBox="0 0 55 55" fill="none" xmlns="http://www.w3.org/2000/svg">
<path d="M19.4792 6.87516C17.5807 6.87516 16.0417 8.41418 16.0417 10.3127V44.6877C16.0417 46.5861 17.5807 48.1252 19.4792 48.1252H35.5469C37.4453 48.1252 38.9844 46.5861 38.9844 44.6877V10.3127C38.9844 8.41418 37.4453 6.87516 35.5469 6.87516H35.5208C34.888 6.87516 34.375 7.38817 34.375 8.021C34.375 9.91947 32.836 11.4585 30.9375 11.4585H24.0625C22.164 11.4585 20.625 9.91947 20.625 8.021C20.625 7.38817 20.112 6.87516 19.4792 6.87516ZM22.7211 6.87516C22.8477 7.23356 22.9167 7.61923 22.9167 8.021C22.9167 8.65382 23.4297 9.16683 24.0625 9.16683H30.9375C31.5703 9.16683 32.0833 8.65382 32.0833 8.021C32.0833 7.61923 32.1523 7.23356 32.2789 6.87516H22.7211ZM13.75 10.3127C13.75 7.14853 16.315 4.5835 19.4792 4.5835H35.5469C38.711 4.5835 41.276 7.14853 41.276 10.3127V44.6877C41.276 47.8518 38.711 50.4168 35.5469 50.4168H19.4792C16.315 50.4168 13.75 47.8518 13.75 44.6877V10.3127Z" fill="black"/>
</svg>
