<svg width="80" height="30" viewBox="0 0 269 65" fill="none" xmlns="http://www.w3.org/2000/svg">
<path d="M0.287109 10.9912C0.287109 9.76074 0.521484 8.60352 0.990234 7.51953C1.45898 6.40625 2.10352 5.4541 2.92383 4.66309C3.74414 3.84277 4.69629 3.19824 5.78027 2.72949C6.89355 2.23145 8.06543 1.98242 9.2959 1.98242H43.4854C44.7158 1.98242 45.873 2.23145 46.957 2.72949C48.0703 3.19824 49.0371 3.84277 49.8574 4.66309C50.6777 5.4541 51.3223 6.40625 51.791 7.51953C52.2598 8.60352 52.4941 9.76074 52.4941 10.9912V19.1211H43.4854V10.9912H9.2959V55.9912H43.4854V47.9053H52.4941V55.9912C52.4941 57.2217 52.2598 58.3936 51.791 59.5068C51.3223 60.5908 50.6777 61.543 49.8574 62.3633C49.0371 63.1836 48.0703 63.8281 46.957 64.2969C45.873 64.7656 44.7158 65 43.4854 65H9.2959C8.06543 65 6.89355 64.7656 5.78027 64.2969C4.69629 63.8281 3.74414 63.1836 2.92383 62.3633C2.10352 61.543 1.45898 60.5908 0.990234 59.5068C0.521484 58.3936 0.287109 57.2217 0.287109 55.9912V10.9912ZM74.6426 0.180664V65H66.0293V0.180664H74.6426ZM129.53 56.3428C129.53 57.5439 129.296 58.6719 128.827 59.7266C128.388 60.7812 127.772 61.7041 126.981 62.4951C126.22 63.2568 125.312 63.8721 124.257 64.3408C123.231 64.7803 122.118 65 120.917 65H97.6699C96.498 65 95.3848 64.7803 94.3301 64.3408C93.2754 63.8721 92.3525 63.2568 91.5615 62.4951C90.7998 61.7041 90.1846 60.7812 89.7158 59.7266C89.2764 58.6719 89.0566 57.5439 89.0566 56.3428V26.8555C89.0566 25.6543 89.2764 24.5264 89.7158 23.4717C90.1846 22.417 90.7998 21.5088 91.5615 20.7471C92.3525 19.9561 93.2754 19.3408 94.3301 18.9014C95.3848 18.4326 96.498 18.1982 97.6699 18.1982H120.917C122.118 18.1982 123.231 18.4326 124.257 18.9014C125.312 19.3408 126.22 19.9561 126.981 20.7471C127.772 21.5088 128.388 22.417 128.827 23.4717C129.296 24.5264 129.53 25.6543 129.53 26.8555V56.3428ZM97.6699 26.8555V56.3428H120.917V26.8555H97.6699ZM143.988 18.1982H152.602V56.3428H176.728V18.1982H185.385V65H176.728V57.0898C176.64 58.1738 176.347 59.1992 175.849 60.166C175.351 61.1328 174.706 61.9824 173.915 62.7148C173.153 63.418 172.274 63.9746 171.278 64.3848C170.282 64.7949 169.228 65 168.114 65H152.602C151.43 65 150.316 64.7803 149.262 64.3408C148.207 63.8721 147.284 63.2568 146.493 62.4951C145.731 61.7041 145.116 60.7812 144.647 59.7266C144.208 58.6719 143.988 57.5439 143.988 56.3428V18.1982ZM199.799 26.8555C199.799 25.6543 200.019 24.5264 200.458 23.4717C200.927 22.417 201.542 21.5088 202.304 20.7471C203.095 19.9561 204.018 19.3408 205.072 18.9014C206.127 18.4326 207.24 18.1982 208.412 18.1982H232.538V0.180664H241.195V65H232.538V57.0898C232.45 58.1738 232.157 59.1992 231.659 60.166C231.161 61.1328 230.517 61.9824 229.726 62.7148C228.964 63.418 228.085 63.9746 227.089 64.3848C226.093 64.7949 225.038 65 223.925 65H208.412C207.24 65 206.127 64.7803 205.072 64.3408C204.018 63.8721 203.095 63.2568 202.304 62.4951C201.542 61.7041 200.927 60.7812 200.458 59.7266C200.019 58.6719 199.799 57.5439 199.799 56.3428V26.8555ZM208.412 56.3428H232.538V26.8555H208.412V56.3428ZM255.609 51.8604H268.749V65H255.609V51.8604Z" fill="black"/>
</svg>
