<svg width="15" height="14" viewBox="0 0 15 14" fill="none" xmlns="http://www.w3.org/2000/svg">
<path d="M14.5584 0.658008C13.6493 0.181348 12.7395 3.52371e-08 11.8301 3.52371e-08C8.94328 -0.000292933 6.05672 1.82637 3.16992 1.82637C2.44594 1.82637 1.72242 1.71152 0.998437 1.42441C0.917109 1.39219 0.835547 1.37695 0.755859 1.37695C0.3525 1.37695 0 1.76719 0 2.30889V11.6036C0 11.9736 0.169453 12.3243 0.441563 12.4667C1.3507 12.9437 2.26055 13.125 3.16992 13.125C6.05672 13.125 8.94352 11.2983 11.8303 11.2983C12.5543 11.2983 13.2778 11.4132 14.0018 11.7003C14.0831 11.7325 14.1647 11.7478 14.2444 11.7478C14.6477 11.7478 15.0002 11.3575 15.0002 10.8158V1.52139C15 1.15107 14.8305 0.800684 14.5584 0.658008ZM1.125 2.93613C1.59656 3.08379 2.08875 3.15791 2.595 3.19775C2.45719 4.05879 1.85156 4.70772 1.125 4.70772V2.93613ZM1.125 11.2857V9.88594C1.93055 9.88594 2.58234 10.6849 2.6182 11.6848C2.09016 11.6317 1.59656 11.4999 1.125 11.2857ZM7.5 9.375C6.4643 9.375 5.625 8.11553 5.625 6.5625C5.625 5.00918 6.46453 3.75 7.5 3.75C8.53547 3.75 9.375 5.00918 9.375 6.5625C9.375 8.11611 8.53523 9.375 7.5 9.375ZM13.875 10.1889C13.4644 10.0603 13.038 9.98818 12.6019 9.9416C12.7395 9.17754 13.2464 8.59746 13.875 8.49785V10.1889ZM13.875 3.27158C13.151 3.15703 12.5892 2.40146 12.567 1.46836C13.0249 1.53193 13.4597 1.65088 13.875 1.83926V3.27158Z" fill="black"/>
</svg>
