<svg width="60" height="60" viewBox="0 0 60 60" fill="none" xmlns="http://www.w3.org/2000/svg">
<circle cx="30" cy="30" r="29" fill="black" stroke="white" stroke-width="2"/>
<path d="M42.6663 44.25V41.0833C42.6663 39.4036 41.9991 37.7927 40.8114 36.605C39.6236 35.4173 38.0127 34.75 36.333 34.75H23.6663C21.9866 34.75 20.3757 35.4173 19.188 36.605C18.0003 37.7927 17.333 39.4036 17.333 41.0833V44.25" stroke="white" stroke-width="2" stroke-linecap="round" stroke-linejoin="round"/>
<path d="M30.0003 28.4167C33.4981 28.4167 36.3337 25.5811 36.3337 22.0833C36.3337 18.5855 33.4981 15.75 30.0003 15.75C26.5025 15.75 23.667 18.5855 23.667 22.0833C23.667 25.5811 26.5025 28.4167 30.0003 28.4167Z" stroke="white" stroke-width="2" stroke-linecap="round" stroke-linejoin="round"/>
</svg>
