<svg width="90" height="70" viewBox="0 0 90 70" fill="none" xmlns="http://www.w3.org/2000/svg">
<path opacity="0.3" d="M68.38 14.9194C75.8387 17.0754 81.5965 23.233 83.0477 30.9704C84.2717 37.4874 82.114 45.528 69.8065 49.3314C57.2447 53.2164 22.1762 55.272 15.73 44.7277C9.28374 34.1834 10.7485 20.594 24.1472 15.6964C33.5387 12.2617 53.809 10.7077 68.38 14.9194Z" fill="#DBDBDB"/>
<path d="M31.79 9.09521H72.839V55.8412H31.79V9.09521Z" fill="#DBDBDB"/>
<g opacity="0.1">
<path d="M62.9282 41.7108V40.4204H61.6884V37.8235H62.9282V35.2334H61.6794V32.6434H60.4397V31.3461H61.6794V30.0535H60.4284V28.7608H54.1869V27.4704H52.9359V24.8851H51.6917V27.4518H50.4429V23.5854H49.1919V33.9478H45.4502V35.2334H49.1919V36.5308H50.4384V37.8211H51.6782V39.1208H50.4452V41.7061H52.9449V40.4181H59.1752V41.7131H56.7002V43.0058H57.9467V44.2961H60.4464V45.5864H61.6929V43.0035H65.4302V41.7108H62.9282ZM57.9399 30.0651H59.1752V31.3461H57.9399V30.0651ZM55.4334 39.1161H54.1982V37.8351H55.4334V39.1161ZM55.4334 33.9454V36.5261H54.1847V35.2334H52.9382V36.5215H50.4452V35.2334H51.6872V33.9408H50.4497V31.3508H52.9359V30.0581H56.6822V32.6434H59.1752V33.9408H55.4402L55.4334 33.9454ZM57.9264 37.8258H56.7002V36.5401H57.9399L57.9264 37.8258ZM60.4172 39.1161H57.9377V37.8305H60.4239L60.4172 39.1161ZM60.4172 35.2311H59.1752V33.9454H60.4149L60.4172 35.2311Z" fill="black"/>
<path d="M61.6812 32.6513C61.682 32.6513 61.6827 32.6501 61.6827 32.6486C61.6827 32.6472 61.682 32.646 61.6812 32.646C61.6804 32.646 61.6797 32.6472 61.6797 32.6486C61.6797 32.6501 61.6804 32.6513 61.6812 32.6513Z" fill="black"/>
<path d="M47.9387 18.4102H39.2109V27.4612H47.9387V18.4102ZM46.6922 26.1662H40.4619V19.7052H46.6922V26.1662Z" fill="black"/>
<path d="M65.4189 18.415H56.7002V27.4637H65.4257L65.4189 18.415ZM64.1747 26.1687H57.9444V19.7077H64.1747V26.1687Z" fill="black"/>
<path d="M39.2129 45.5886H47.9406V36.5376H39.2129V45.5886ZM40.4639 37.8349H46.6919V44.2959H40.4639V37.8349Z" fill="black"/>
<path d="M51.6987 22.2953H52.9452V23.5879H54.1917V24.8713H55.4337V22.2883H54.1984V21.0003H55.4314V18.4336H49.2012V21.0003H50.4454V23.5856H51.6987V22.2953ZM51.6987 19.7053H52.9339V20.9863H51.6987V19.7053Z" fill="black"/>
<path d="M42.9531 30.0605V33.9339H40.4511V32.6669H39.2158V35.2335H44.2041V32.6435H47.9413V31.3509H45.4506V30.0605H42.9531Z" fill="black"/>
<path d="M49.2031 45.5914H52.9336V44.2987H51.6894V43.006H50.4429V41.7134H49.2031V45.5914Z" fill="black"/>
<path d="M39.2158 28.7725V31.3392H40.4578V30.0489H42.9508V28.7632L39.2158 28.7725Z" fill="black"/>
<path d="M65.4193 32.6434V28.77H62.9443V30.0627H64.1886V32.6434H65.4193Z" fill="black"/>
<path d="M45.4467 30.0607C45.4475 30.0607 45.4481 30.0596 45.4481 30.0582C45.4481 30.0568 45.4475 30.0557 45.4467 30.0557C45.4459 30.0557 45.4453 30.0568 45.4453 30.0582C45.4453 30.0596 45.4459 30.0607 45.4467 30.0607Z" fill="black"/>
<path d="M47.9387 28.7725H45.4502V30.0581H47.9387V28.7725Z" fill="black"/>
<path d="M64.1727 33.9526H62.9307V35.2336H64.1727V33.9526Z" fill="black"/>
<path d="M65.4188 36.5376H64.1836V37.8209H65.4188V36.5376Z" fill="black"/>
<path d="M55.4312 26.1826H54.1914V27.4683H55.4312V26.1826Z" fill="black"/>
<path d="M49.2031 37.8306V39.1209H50.4429V37.8306H49.2031Z" fill="black"/>
<path d="M50.4418 39.1256C50.4426 39.1256 50.4433 39.1245 50.4433 39.1231C50.4433 39.1217 50.4426 39.1206 50.4418 39.1206C50.4411 39.1206 50.4404 39.1217 50.4404 39.1231C50.4404 39.1245 50.4411 39.1256 50.4418 39.1256Z" fill="black"/>
<path d="M64.1727 39.1304H62.9307V40.416H64.1727V39.1304Z" fill="black"/>
<path d="M61.6812 31.3559C61.682 31.3559 61.6827 31.3547 61.6827 31.3532C61.6827 31.3518 61.682 31.3506 61.6812 31.3506C61.6804 31.3506 61.6797 31.3518 61.6797 31.3532C61.6797 31.3547 61.6804 31.3559 61.6812 31.3559Z" fill="black"/>
<path d="M62.9214 32.6481V31.3555H61.6816V32.6481H62.9214Z" fill="black"/>
<path d="M54.1963 44.2985H55.4315V43.0151H54.1963V44.2985Z" fill="black"/>
<path d="M56.7002 45.5889H57.9399V44.3032H56.7002V45.5889Z" fill="black"/>
<path d="M64.1836 45.5934H65.4188V44.3101H64.1836V45.5934Z" fill="black"/>
<path d="M54.1982 32.667V33.955H55.438V32.667H54.1982Z" fill="black"/>
<path d="M45.4498 21H41.708V24.8733H45.4498V21Z" fill="black"/>
<path d="M62.9212 21H59.1885V24.871H62.9212V21Z" fill="black"/>
<path d="M41.708 42.9989H45.4498V39.1279H41.708V42.9989Z" fill="black"/>
</g>
<path opacity="0.2" d="M31.8574 13.8481H44.3652V47.5508H31.8574V13.8481Z" fill="black"/>
<path d="M21.1006 38.5819C21.1006 38.5819 22.9703 29.4492 27.6818 29.4492C32.3933 29.4492 34.8953 43.8039 23.4383 45.3672L21.1006 38.5819Z" fill="#F4A28C"/>
<path opacity="0.1" d="M21.1006 38.5819C21.1006 38.5819 22.9703 29.4492 27.6818 29.4492C32.3933 29.4492 34.8953 43.8039 23.4383 45.3672L21.1006 38.5819Z" fill="black"/>
<path d="M25.2207 12.8379H43.2455V46.0576H25.2207V12.8379Z" fill="black"/>
<path opacity="0.46" d="M25.2207 12.8379H43.2455V46.0576H25.2207V12.8379Z" fill="#ECECEC"/>
<path d="M26.6846 15.54H41.7798V40.3924H26.6846V15.54Z" fill="#ECECEC"/>
<path d="M28.2354 33.1475H39.9646V36.9041H28.2354V33.1475Z" fill="#FFD200"/>
<path opacity="0.1" d="M30.668 32.2256C30.668 32.2256 32.6727 33.4739 31.9032 35.3266C31.1337 37.1793 28.787 38.3039 28.7532 40.7353C28.7195 43.1666 28.7532 46.0599 28.7532 46.0599H25.2207V40.3899L30.668 32.2256Z" fill="black"/>
<path d="M24.7887 35.189C24.7887 35.189 28.4247 31.3344 29.9952 31.6774C31.2889 31.9597 31.2912 34.6337 28.4697 36.8597C27.8962 37.3065 27.4221 37.8759 27.0793 38.5292C26.7365 39.1826 26.5331 39.9047 26.4829 40.6467C26.4042 41.8927 26.0082 43.372 24.7887 44.492C22.2282 46.844 20.3269 44.8 20.5744 41.6197C20.8219 38.4394 20.9884 37.5037 24.7887 35.189Z" fill="#F4A28C"/>
<path d="M25.1077 59.6938L26.2034 43.9834L19.2622 41.8018L14.1074 59.6938H25.1077Z" fill="black"/>
<path opacity="0.1" d="M25.108 59.6939L26.2038 43.9835L22.8895 42.9429L20.833 59.6939H25.108Z" fill="black"/>
<path opacity="0.1" d="M30.2804 14.7187C30.5837 14.7187 30.8294 14.4638 30.8294 14.1494C30.8294 13.835 30.5837 13.5801 30.2804 13.5801C29.9772 13.5801 29.7314 13.835 29.7314 14.1494C29.7314 14.4638 29.9772 14.7187 30.2804 14.7187Z" fill="black"/>
<path opacity="0.1" d="M37.4711 13.9512H32.1363C32.0071 13.9512 31.9023 14.0598 31.9023 14.1938V14.2265C31.9023 14.3605 32.0071 14.4692 32.1363 14.4692H37.4711C37.6003 14.4692 37.7051 14.3605 37.7051 14.2265V14.1938C37.7051 14.0598 37.6003 13.9512 37.4711 13.9512Z" fill="black"/>
<path opacity="0.1" d="M33.8065 44.9215C34.7745 44.9215 35.5592 44.1077 35.5592 43.1038C35.5592 42.0999 34.7745 41.2861 33.8065 41.2861C32.8384 41.2861 32.0537 42.0999 32.0537 43.1038C32.0537 44.1077 32.8384 44.9215 33.8065 44.9215Z" fill="black"/>
<path d="M38.873 25.9888V25.9908H38.8746L38.873 25.9888Z" fill="#0312D3"/>
<path d="M35.0508 22.5913V22.5934H35.0523L35.0508 22.5913Z" fill="#0312D3"/>
<path d="M38.8731 28.819V28.2544H38.3309V27.1204H38.8731V25.991H38.3264V24.857H37.7841V24.29H38.3264V23.723H37.7796V23.156H35.0504V22.5937H34.5036V21.4667H33.9591V22.5937H33.4146V20.895H32.8679V25.4334H31.2344V25.998H32.8701V26.565H33.4146V27.1297H33.9569V27.699H33.4146V28.8284H34.5081V28.2567H37.2329V28.8237H36.1461V29.4H36.6906V29.9647H37.7841V30.5294H38.3286V29.3954H39.9644V28.8307L38.8731 28.819ZM36.6929 23.7277H37.2329V24.2877H36.6929V23.7277ZM35.5949 27.6944H35.0549V27.1344H35.5949V27.6944ZM35.5949 25.4334V26.5627H35.0481V26.0004H34.5036V26.565H33.4101V26.0004H33.9524V25.4334H33.4124V24.2994H34.4991V23.7347H36.1371V24.8617H37.2306V25.4334H35.5949ZM36.6839 27.1297H36.1416V26.5674H36.6839V27.1297ZM37.7729 27.6944H36.6861V27.132H37.7729V27.6944ZM37.7729 25.9957H37.2374V25.4334H37.7796L37.7729 25.9957Z" fill="#0312D3"/>
<path d="M35.5977 25.4239H35.5992V25.4219L35.5977 25.4239Z" fill="#0312D3"/>
<path d="M33.4121 20.8926V20.8947H33.4137L33.4121 20.8926Z" fill="#0312D3"/>
<path d="M33.4137 28.8209V28.8188H33.4121L33.4137 28.8209Z" fill="#0312D3"/>
<path d="M33.4137 27.1201H33.4121V27.1222H33.4137V27.1201Z" fill="#0312D3"/>
<path d="M32.3191 18.6318H28.4941V22.5985H32.3191V18.6318ZM31.7724 22.0222H29.0499V19.1965H31.7724V22.0222Z" fill="#0312D3"/>
<path d="M39.9627 18.6318H36.1377V22.5985H39.9627V18.6318ZM39.4182 22.0222H36.6934V19.1988H39.4182V22.0222Z" fill="#0312D3"/>
<path d="M28.5029 30.5155H32.3279V26.5488H28.5029V30.5155ZM29.0497 27.1252H31.7744V29.9508H29.0497V27.1252Z" fill="#0312D3"/>
<path d="M33.4121 20.8926L33.4137 20.8947V20.8926H33.4121Z" fill="#0312D3"/>
<path d="M33.9614 20.3305H34.5081V20.8952H35.0526V21.4668H35.5949V20.3258H35.0549V19.7588H35.5949V18.6318H32.8701V19.7612H33.4146V20.8928H33.9614V20.3305ZM33.9614 19.1965H34.5014V19.7565H33.9614V19.1965Z" fill="#0312D3"/>
<path d="M30.1504 23.7251V25.4191H29.0546V24.8591H28.5146V25.9861H30.6971V24.8544H32.3306V24.2898H31.2304V23.7251H30.1504Z" fill="#0312D3"/>
<path d="M30.1367 23.7252H30.1383V23.7231L30.1367 23.7252Z" fill="#0312D3"/>
<path d="M32.8721 30.5176H34.5033V29.9506H33.9588V29.386H33.4121V28.8213H32.8721V30.5176Z" fill="#0312D3"/>
<path d="M33.4137 28.8209L33.4121 28.8188V28.8209H33.4137Z" fill="#0312D3"/>
<path d="M30.1367 23.7252L30.1383 23.7231H30.1367V23.7252Z" fill="#0312D3"/>
<path d="M28.5029 23.1606V24.2876H29.0474V23.723H30.1364V23.1606H28.5029Z" fill="#0312D3"/>
<path d="M39.9624 24.8546V23.1606H38.8779V23.7253H39.4224V24.8546H39.9624Z" fill="#0312D3"/>
<path d="M32.3195 23.1606H31.2305V23.723H32.3195V23.1606Z" fill="#0312D3"/>
<path d="M38.873 25.9888L38.8746 25.9908V25.9888H38.873Z" fill="#0312D3"/>
<path d="M39.4182 25.4331H38.876V25.9954H39.4182V25.4331Z" fill="#0312D3"/>
<path d="M39.9619 26.5581H39.4219V27.1181H39.9619V26.5581Z" fill="#0312D3"/>
<path d="M35.0508 22.5913L35.0523 22.5934V22.5913H35.0508Z" fill="#0312D3"/>
<path d="M35.595 22.0288H35.0527V22.5911H35.595V22.0288Z" fill="#0312D3"/>
<path d="M32.8701 27.1226V27.6872H33.4124V27.1226H32.8701Z" fill="#0312D3"/>
<path d="M39.4182 27.6919H38.876V28.2542H39.4182V27.6919Z" fill="#0312D3"/>
<path d="M38.8713 24.8571V24.2925H38.3291V24.8571H38.8713Z" fill="#0312D3"/>
<path d="M35.0547 29.9506H35.5947V29.3999H35.0547V29.9506Z" fill="#0312D3"/>
<path d="M36.1465 30.5155H36.6887V29.9531H36.1465V30.5155Z" fill="#0312D3"/>
<path d="M39.4219 30.5175H39.9619V29.9575H39.4219V30.5175Z" fill="#0312D3"/>
<path d="M35.5977 25.4239L35.5992 25.4219H35.5977V25.4239Z" fill="#0312D3"/>
<path d="M35.0547 24.8594V25.4334H35.5969V24.871L35.0547 24.8594Z" fill="#0312D3"/>
<path d="M31.226 19.7632H29.5947V21.4665H31.226V19.7632Z" fill="#0312D3"/>
<path d="M38.8708 19.7632H37.2373V21.4665H38.8708V19.7632Z" fill="#0312D3"/>
<path d="M29.5947 29.3835H31.226V27.6895H29.5947V29.3835Z" fill="#0312D3"/>
<path opacity="0.1" d="M50.751 5.99658H53.8785V11.0879H50.751V5.99658Z" fill="black"/>
<path opacity="0.46" d="M41.7803 49.8354H62.937V51.1468H41.7803V49.8354Z" fill="#ECECEC"/>
</svg>
