<svg width="55" height="55" viewBox="0 0 55 55" fill="none" xmlns="http://www.w3.org/2000/svg">
<path d="M5.15625 5.15625H18.9062V1.71875H1.71875V18.9062H5.15625V5.15625Z" fill="black"/>
<path d="M18.9062 18.9062V8.59375H8.59375V18.9062H18.9062ZM12.0312 12.0312H15.4688V15.4688H12.0312V12.0312Z" fill="black"/>
<path d="M35.2344 5.15625H49.8438V18.9062H53.2812V1.71875H35.2344V5.15625Z" fill="black"/>
<path d="M46.4062 18.9062V8.59375H36.0938V18.9062H46.4062ZM39.5312 12.0312H42.9688V15.4688H39.5312V12.0312Z" fill="black"/>
<path d="M18.9062 49.8438H5.15625V36.0938H1.71875V53.2812H18.9062V49.8438Z" fill="black"/>
<path d="M18.9062 36.0938H8.59375V46.4062H18.9062V36.0938ZM15.4688 42.9688H12.0312V39.5312H15.4688V42.9688Z" fill="black"/>
<path d="M49.8438 49.8438H35.2344V53.2812H53.2812V36.0938H49.8438V49.8438Z" fill="black"/>
<path d="M29.2188 32.6562H42.9688V39.5312H46.4062V29.2188H29.2188V32.6562Z" fill="black"/>
<path d="M46.4062 46.4062V42.9688H25.7812V29.2188H8.59375V32.6562H22.3438V46.4062H46.4062Z" fill="black"/>
<path d="M25.7812 8.59375H22.3438V18.9062H25.7812V8.59375Z" fill="black"/>
<path d="M8.59375 25.7812H32.6562V8.59375H29.2188V22.3438H8.59375V25.7812Z" fill="black"/>
<path d="M46.4062 22.3438H36.0938V25.7812H46.4062V22.3438Z" fill="black"/>
<path d="M39.5312 36.0938H36.0938V39.5312H39.5312V36.0938Z" fill="black"/>
<path d="M32.6562 36.0938H29.2188V39.5312H32.6562V36.0938Z" fill="black"/>
</svg>
