<svg width="32" height="32" viewBox="0 0 32 32" fill="none" xmlns="http://www.w3.org/2000/svg">
<path d="M27.6743 7.12667C27.4197 6.83467 27.053 6.66667 26.6663 6.66667H8.24101L7.98101 5.11467C7.87434 4.472 7.31834 4 6.66634 4H3.66634C2.92901 4 2.33301 4.596 2.33301 5.33333C2.33301 6.07067 2.92901 6.66667 3.66634 6.66667H5.53701L8.01701 21.552L8.07701 21.7173L8.14901 21.9187L8.30901 22.1573L8.43567 22.3067L8.69301 22.48L8.84234 22.5667C8.99701 22.6293 9.15967 22.6667 9.33167 22.6667H23.9997C24.737 22.6667 25.333 22.0707 25.333 21.3333C25.333 20.596 24.737 20 23.9997 20H10.4623L10.241 18.6667H25.333C25.997 18.6667 26.5597 18.1787 26.653 17.5227L27.9863 8.18933C28.041 7.80533 27.9263 7.41733 27.6743 7.12667ZM25.129 9.33333L24.749 12H19.9997V9.33333H25.129ZM18.6663 9.33333V12H14.6663V9.33333H18.6663ZM18.6663 13.3333V16H14.6663V13.3333H18.6663ZM13.333 9.33333V12H9.33301L9.13567 12.04L8.68501 9.33333H13.333ZM9.35167 13.3333H13.333V16H9.79567L9.35167 13.3333ZM19.9997 16V13.3333H24.557L24.177 16H19.9997Z" fill="white"/>
<path d="M11.333 28C12.4376 28 13.333 27.1046 13.333 26C13.333 24.8954 12.4376 24 11.333 24C10.2284 24 9.33301 24.8954 9.33301 26C9.33301 27.1046 10.2284 28 11.333 28Z" fill="white"/>
<path d="M23.333 28C24.4376 28 25.333 27.1046 25.333 26C25.333 24.8954 24.4376 24 23.333 24C22.2284 24 21.333 24.8954 21.333 26C21.333 27.1046 22.2284 28 23.333 28Z" fill="white"/>
</svg>
