<svg width="30" height="30" viewBox="0 0 30 30" fill="none" xmlns="http://www.w3.org/2000/svg">
<g clip-path="url(#clip0_909_1709)">
<path d="M30 13.3125C30 10.5 27.375 9.375 25.875 9.375H21.75C22.5 7.5 23.0625 5.25 22.6875 3.5625C21.75 0.1875 18.9375 0 18 0H17.8125C17.0625 0 16.6875 0.375 16.3125 0.9375L14.4375 6.1875L9.375 11.25H0V28.125H9.375V26.25C9.75 26.25 10.6875 26.8125 11.625 27.375C13.875 28.5 17.0625 30.1875 20.0625 30.1875C24.5625 30.1875 26.0625 29.625 27.1875 27.75C27.75 26.625 27.75 25.6875 27.75 25.125C28.125 24.75 28.6875 24.1875 28.875 23.25C29.0625 22.3125 29.0625 21.75 28.875 21.1875C29.25 20.625 29.625 19.875 29.8125 18.75C29.8125 17.8125 29.625 17.0625 29.4375 16.5C29.625 15.75 30 14.8125 30 13.3125ZM4.6875 25.3125C3.5625 25.3125 2.8125 24.5625 2.8125 23.4375C2.8125 22.3125 3.5625 21.5625 4.6875 21.5625C5.8125 21.5625 6.5625 22.3125 6.5625 23.4375C6.5625 24.5625 5.8125 25.3125 4.6875 25.3125ZM27.5625 17.0625C27.5625 17.0625 27.9375 17.4375 27.9375 18.375C27.9375 19.5 27.1875 20.0625 27.1875 20.0625L26.625 20.625L27 21.1875C27 21.1875 27.375 21.75 27 22.5C26.8125 23.25 26.0625 23.8125 26.0625 23.8125L25.5 24.375L25.875 25.125C25.875 25.125 26.25 25.875 25.6875 26.8125C25.3125 27.5625 24.9375 28.125 20.25 28.125C17.625 28.125 14.625 26.625 12.5625 25.5C11.0625 24.75 10.125 24.375 9.375 24.375V13.125H9.5625C9.9375 13.125 10.3125 12.9375 10.6875 12.75L15.9375 7.5C16.125 7.3125 16.125 7.125 16.3125 6.9375L18.1875 1.875C19.125 1.875 20.4375 2.25 20.8125 3.9375C21 5.0625 20.625 6.9375 19.6875 9.1875C19.5 9.75 19.5 10.125 19.875 10.6875C20.0625 11.0625 20.625 11.25 21.1875 11.25H25.875C26.0625 11.25 28.125 11.625 28.125 13.3125C28.125 14.8125 27.5625 15.5625 27.5625 15.5625L27 16.3125L27.5625 17.0625Z" fill="black"/>
</g>
<defs>
<clipPath id="clip0_909_1709">
<rect width="30" height="30" fill="white"/>
</clipPath>
</defs>
</svg>
