<svg width="32" height="32" viewBox="0 0 32 32" fill="none" xmlns="http://www.w3.org/2000/svg">
<g clip-path="url(#clip0_910_1799)">
<path d="M26.7489 24.9297C28.1846 23.2019 29.1831 21.1536 29.6599 18.9583C30.1367 16.7629 30.0778 14.4851 29.4881 12.3173C28.8984 10.1496 27.7953 8.1557 26.2721 6.50439C24.749 4.85308 22.8505 3.59289 20.7373 2.83041C18.6242 2.06792 16.3585 1.82558 14.1318 2.12387C11.9052 2.42216 9.78314 3.25231 7.94517 4.54411C6.1072 5.8359 4.60737 7.55135 3.57254 9.54534C2.53772 11.5393 1.99833 13.7532 2 15.9997C2.00079 19.2659 3.15181 22.4275 5.2511 24.9297L5.2311 24.9463C5.3011 25.0308 5.3811 25.103 5.4533 25.1855C5.5433 25.2891 5.6397 25.3855 5.7333 25.4863C6.0133 25.7896 6.3007 26.0815 6.6033 26.3563C6.6948 26.4394 6.7897 26.5175 6.8833 26.598C7.2033 26.8739 7.5317 27.1352 7.8733 27.3793C7.9174 27.4105 7.9565 27.4486 8.0009 27.4799V27.4672C10.343 29.1154 13.137 29.9999 16.0009 29.9999C18.8648 29.9999 21.6588 29.1154 24.0009 27.4672V27.4797C24.0453 27.4484 24.0844 27.4103 24.1285 27.3791C24.4697 27.135 24.7985 26.8737 25.1185 26.5978C25.2121 26.5178 25.307 26.4392 25.3985 26.3561C25.701 26.0812 25.9885 25.7893 26.2685 25.4861C26.3618 25.3855 26.4579 25.2889 26.5485 25.1853C26.6204 25.1028 26.7007 25.0306 26.7707 24.9461L26.7489 24.9297ZM16 7.99974C16.89 7.99974 17.76 8.26366 18.5001 8.75813C19.2401 9.25259 19.8169 9.9554 20.1575 10.7777C20.4981 11.5999 20.5872 12.5047 20.4135 13.3776C20.2399 14.2506 19.8113 15.0524 19.182 15.6817C18.5526 16.3111 17.7508 16.7396 16.8779 16.9133C16.005 17.0869 15.1002 16.9978 14.2779 16.6572C13.4557 16.3166 12.7529 15.7398 12.2584 14.9998C11.7639 14.2598 11.5 13.3898 11.5 12.4997C11.5 11.3063 11.9741 10.1617 12.818 9.31776C13.6619 8.47385 14.8065 7.99974 16 7.99974ZM8.0071 24.9297C8.02437 23.6167 8.55794 22.3633 9.49234 21.4406C10.4267 20.518 11.6869 20.0004 13 19.9997H19C20.3131 20.0004 21.5732 20.518 22.5076 21.4407C23.442 22.3633 23.9756 23.6167 23.9929 24.9297C21.7998 26.906 18.9522 27.9997 16 27.9997C13.0478 27.9997 10.2003 26.906 8.0071 24.9297Z" fill="white"/>
</g>
<defs>
<clipPath id="clip0_910_1799">
<rect width="32" height="32" fill="white"/>
</clipPath>
</defs>
</svg>
