<svg fill="none" height="24" viewBox="0 0 24 24" width="24" xmlns="http://www.w3.org/2000/svg"><path clip-rule="evenodd" d="m4.46299 6.05709c.28025-.11609.60284-.05192.81734.16258l10.49957 10.49953.0009.0009 1.9995 1.9996c.2929.2929.2929.7677 0 1.0606s-.7677.2929-1.0606 0l-1.7804-1.7803h-8.1893c-1.51878 0-2.75-1.2312-2.75-2.75v-8.5c0-.30335.18273-.57682.46299-.69291zm8.97631 10.44291-7.9393-7.93934v6.68934c0 .6904.55964 1.25 1.25 1.25zm-.1893-9h-3.5c-.41421 0-.75-.33579-.75-.75s.33579-.75.75-.75h3.5c1.508 0 2.7325 1.21381 2.7498 2.71772l2.8825-1.6214c.2322-.13063.5163-.12824.7463.00627.23.13452.3714.38096.3714.64741v8.5c0 .2664-.1414.5129-.3714.6474s-.5141.1369-.7463.0063l-4-2.25c-.2362-.1329-.3823-.3827-.3823-.6537v-3.9852c-.0002-.0094-.0002-.01883 0-.02822v-1.23658c0-.69036-.5596-1.25-1.25-1.25zm2.75 2.9386v3.1228l2.5 1.4062v-5.93521z" fill="#141414" fill-rule="evenodd"/></svg>