<svg fill="none" height="24" viewBox="0 0 24 24" width="24" xmlns="http://www.w3.org/2000/svg"><path d="m15.1141 9.35688c-.3552.21311-.4703.67382-.2572 1.02902s.6738.4703 1.029.2572zm4.1359-1.60688h.75c0-.2702-.1453-.51952-.3805-.65265-.2351-.13313-.5237-.12949-.7554.00953zm0 8.5-.3859.6431c.2317.139.5203.1427.7554.0095.2352-.1331.3805-.3824.3805-.6526zm-3.3641-2.8931c-.3552-.2131-.8159-.098-1.029.2572s-.098.8159.2572 1.029zm0-2.7138 3.75-2.24998-.7718-1.28624-3.75 2.25zm2.6141-2.8931v8.5h1.5v-8.5zm1.1359 7.8569-3.75-2.25-.7718 1.2862 3.75 2.25zm-12.8859-8.1069h6.5v-1.5h-6.5zm7.75 1.25v6.5h1.5v-6.5zm-1.25 7.75h-6.5v1.5h6.5zm-7.75-1.25v-6.5h-1.5v6.5zm1.25 1.25c-.69036 0-1.25-.5596-1.25-1.25h-1.5c0 1.5188 1.23122 2.75 2.75 2.75zm7.75-1.25c0 .6904-.5596 1.25-1.25 1.25v1.5c1.5188 0 2.75-1.2312 2.75-2.75zm-1.25-7.75c.6904 0 1.25.55964 1.25 1.25h1.5c0-1.51878-1.2312-2.75-2.75-2.75zm-6.5-1.5c-1.51878 0-2.75 1.23122-2.75 2.75h1.5c0-.69036.55964-1.25 1.25-1.25z" fill="#141414"/></svg>